HIERARCHY
ROOT joint_0
{
	OFFSET 0.000000 0.000000 0.000000
	CHANNELS 6 Xposition Yposition Zposition Zrotation Yrotation Xrotation 
	JOINT joint_1
	{
		OFFSET 7.566162 2.250183 114.799927
		CHANNELS 3 Zrotation Yrotation Xrotation
		JOINT joint_2
		{
			OFFSET -5.201660 -0.414001 104.936035
			CHANNELS 3 Zrotation Yrotation Xrotation
			JOINT joint_3
			{
				OFFSET -6.923584 -0.419739 104.718018
				CHANNELS 3 Zrotation Yrotation Xrotation
				JOINT joint_4
				{
					OFFSET 3.108887 2.881104 149.449951
					CHANNELS 3 Zrotation Yrotation Xrotation
					JOINT joint_5
					{
						OFFSET 19.988770 5.920349 90.786987
						CHANNELS 3 Zrotation Yrotation Xrotation
						End Site
						{
							OFFSET 0.000000 0.000000 0.000000
						}
					}
				}
				JOINT joint_6
				{
					OFFSET 9.283936 -30.015930 84.410034
					CHANNELS 3 Zrotation Yrotation Xrotation
					JOINT joint_7
					{
						OFFSET 47.243164 -155.716736 -23.241089
						CHANNELS 3 Zrotation Yrotation Xrotation
						JOINT joint_8
						{
							OFFSET 31.323730 -15.356873 -268.798950
							CHANNELS 3 Zrotation Yrotation Xrotation
							JOINT joint_9
							{
								OFFSET 28.122314 -2.114624 -262.450012
								CHANNELS 3 Zrotation Yrotation Xrotation
								End Site
								{
									OFFSET 0.000000 0.000000 0.000000
								}
							}
						}
					}
				}
				JOINT joint_10
				{
					OFFSET -5.580566 33.311218 83.498047
					CHANNELS 3 Zrotation Yrotation Xrotation
					JOINT joint_11
					{
						OFFSET -22.773438 160.515381 -27.138062
						CHANNELS 3 Zrotation Yrotation Xrotation
						JOINT joint_12
						{
							OFFSET 27.004395 30.848877 -267.937988
							CHANNELS 3 Zrotation Yrotation Xrotation
							JOINT joint_13
							{
								OFFSET 32.625000 14.824585 -261.518005
								CHANNELS 3 Zrotation Yrotation Xrotation
								End Site
								{
									OFFSET 0.000000 0.000000 0.000000
								}
							}
						}
					}
				}
			}
		}
	}
	JOINT joint_14
	{
		OFFSET 20.623535 -83.447632 -106.174011
		CHANNELS 3 Zrotation Yrotation Xrotation
		JOINT joint_15
		{
			OFFSET 0.661865 -23.563843 -459.915039
			CHANNELS 3 Zrotation Yrotation Xrotation
			JOINT joint_16
			{
				OFFSET -23.461670 -28.727966 -444.760971
				CHANNELS 3 Zrotation Yrotation Xrotation
				JOINT joint_17
				{
					OFFSET 178.992920 54.047363 -80.113001
					CHANNELS 3 Zrotation Yrotation Xrotation
					End Site
					{
						OFFSET 0.000000 0.000000 0.000000
					}
				}
			}
		}
	}
	JOINT joint_18
	{
		OFFSET -19.571533 84.686279 -105.380005
		CHANNELS 3 Zrotation Yrotation Xrotation
		JOINT joint_19
		{
			OFFSET -22.949951 3.639404 -459.933044
			CHANNELS 3 Zrotation Yrotation Xrotation
			JOINT joint_20
			{
				OFFSET -33.690674 4.092651 -445.010971
				CHANNELS 3 Zrotation Yrotation Xrotation
				JOINT joint_21
				{
					OFFSET 187.419678 18.953857 -76.759001
					CHANNELS 3 Zrotation Yrotation Xrotation
					End Site
					{
						OFFSET 0.000000 0.000000 0.000000
					}
				}
			}
		}
	}
}
MOTION
Frames: 9
Frame Time: 0.016667
-3175.829590 921.145813 1107.259033 -5.349885 4.170224 0.618298 -0.538346 8.094768 5.321046 1.168212 -1.166821 -1.184999 1.636193 1.427088 0.696566 0.085351 -3.266089 0.651364 0.000000 0.000000 0.000000 3.179929 -0.123705 -2.019925 -0.323556 0.323039 -2.316450 0.296910 -0.097323 2.702213 0.000000 0.000000 0.000000 0.838260 1.602163 -0.038074 -0.695246 0.264599 -7.578739 -0.228375 -1.140156 -1.266791 0.000000 0.000000 0.000000 -2.540924 -9.640834 -4.611612 -5.847704 22.348022 -6.078902 -7.521553 -5.420904 -1.315972 0.000000 0.000000 0.000000 -1.768073 -10.005338 7.932139 -2.215072 52.545914 -11.226880 -13.336965 -4.263898 -4.382189 0.000000 0.000000 0.000000 
-3171.774170 924.780518 1109.211060 -4.991938 4.390932 0.612331 -0.468140 7.542035 5.293625 1.117793 -1.098936 -1.159558 1.570372 1.321716 0.678678 0.058154 -3.062225 0.699844 0.000000 0.000000 0.000000 3.014127 -0.032199 -2.124028 -0.319989 0.467514 -2.165928 0.326770 -0.198150 2.970301 0.000000 0.000000 0.000000 1.075542 1.517871 -0.008184 -0.674341 0.218500 -7.031878 -0.275425 -0.938697 -1.745217 0.000000 0.000000 0.000000 -2.652071 -9.129810 -4.800651 -5.759255 21.305423 -6.105005 -7.258356 -4.817432 -1.403013 0.000000 0.000000 0.000000 -1.007762 -10.734233 7.542681 -1.608012 53.084846 -10.119106 -10.884954 -6.213100 -3.318275 0.000000 0.000000 0.000000 
-3168.064453 928.769775 1111.020020 -4.688468 4.745283 0.520136 -0.302260 6.916541 5.284095 1.055769 -1.029175 -1.139316 1.474978 1.213716 0.671476 0.018889 -2.892839 0.809660 0.000000 0.000000 0.000000 2.844787 0.074926 -2.197013 -0.311355 0.629191 -1.974080 0.348895 -0.293967 3.170232 0.000000 0.000000 0.000000 1.404304 1.390197 0.040211 -0.664100 0.109304 -6.484823 -0.325063 -0.680304 -2.271484 0.000000 0.000000 0.000000 -2.772305 -8.764461 -4.928466 -5.678460 20.205467 -6.070598 -6.984833 -4.190759 -1.496531 0.000000 0.000000 0.000000 -0.093244 -11.441051 7.209599 -0.811896 52.721676 -9.005267 -7.772885 -8.248600 -1.967454 0.000000 0.000000 0.000000 
-3164.831787 933.031189 1112.438965 -4.426028 5.130910 0.460884 -0.114635 6.411856 5.121278 0.973082 -0.968156 -1.084361 1.337528 1.145282 0.656050 -0.018782 -2.875102 0.960598 0.000000 0.000000 0.000000 2.707694 0.119647 -2.183301 -0.287360 0.723770 -1.716917 0.348151 -0.343448 3.164531 0.000000 0.000000 0.000000 1.640176 1.285061 0.108450 -0.643524 0.026904 -6.012241 -0.387255 -0.647416 -2.788919 0.000000 0.000000 0.000000 -2.927947 -8.557085 -5.115741 -5.628685 19.263122 -6.001863 -6.749869 -3.628864 -1.587400 0.000000 0.000000 0.000000 0.630409 -12.080274 6.808531 -0.116558 51.171957 -7.986400 -5.072616 -10.239960 -0.768123 0.000000 0.000000 0.000000 
-3162.194336 937.505981 1113.524048 -4.254268 5.505775 0.437640 0.094939 6.178692 4.803213 0.878478 -0.939991 -1.015241 1.173543 1.127983 0.622268 -0.047408 -3.105719 1.149977 0.000000 0.000000 0.000000 2.603916 0.056142 -2.041775 -0.237167 0.706872 -1.342311 0.309773 -0.322379 2.816803 0.000000 0.000000 0.000000 1.708781 1.240078 0.207710 -0.598267 0.019241 -5.635706 -0.474486 -1.042393 -3.306047 0.000000 0.000000 0.000000 -3.147269 -8.492170 -5.370537 -5.607893 18.483887 -5.876199 -6.540583 -3.106458 -1.679969 0.000000 0.000000 0.000000 1.109334 -12.454531 6.304305 0.498150 47.858822 -6.985833 -2.868591 -11.755121 0.179635 0.000000 0.000000 0.000000 
-3160.033691 942.253967 1114.218994 -4.177859 5.869332 0.378945 0.325940 6.159589 4.459248 0.780953 -0.952680 -0.969728 1.012981 1.135056 0.575193 -0.074316 -3.485658 1.377917 0.000000 0.000000 0.000000 2.531832 -0.068698 -1.821322 -0.171001 0.628687 -0.893695 0.248549 -0.255135 2.261655 0.000000 0.000000 0.000000 1.686262 1.227809 0.334929 -0.541776 0.046080 -5.340164 -0.573200 -1.673317 -3.814224 0.000000 0.000000 0.000000 -3.403106 -8.545972 -5.603788 -5.599878 17.855625 -5.728747 -6.354211 -2.634899 -1.766866 0.000000 0.000000 0.000000 1.434448 -12.556179 5.808125 1.096786 43.075360 -5.997650 -1.061883 -12.593092 0.906434 0.000000 0.000000 0.000000 
-3158.132568 947.367859 1114.105957 -4.081720 6.206922 0.324919 0.502491 6.181472 4.061890 0.662183 -0.965056 -0.908017 0.845261 1.154500 0.528009 -0.105481 -3.841377 1.617124 0.000000 0.000000 0.000000 2.516094 -0.197300 -1.603730 -0.109440 0.543025 -0.490164 0.193407 -0.165125 1.764496 0.000000 0.000000 0.000000 1.609178 1.217665 0.467641 -0.495137 0.067727 -5.141937 -0.655818 -2.237957 -4.236118 0.000000 0.000000 0.000000 -3.651735 -8.750045 -5.828667 -5.620519 17.580905 -5.669900 -6.245298 -2.385502 -1.811379 0.000000 0.000000 0.000000 1.429131 -12.685263 5.393677 1.397552 37.953984 -5.239356 -0.149605 -13.053786 1.280922 0.000000 0.000000 0.000000 
-3156.390869 952.989441 1113.000000 -3.828602 6.567898 0.371284 0.586926 6.087283 3.476268 0.480720 -0.915564 -0.759397 0.616598 1.183977 0.493898 -0.144807 -4.120338 1.868568 0.000000 0.000000 0.000000 2.567540 -0.315246 -1.425989 -0.056136 0.468628 -0.163141 0.151728 -0.018471 1.395967 0.000000 0.000000 0.000000 1.458586 1.206421 0.607880 -0.472510 0.072522 -5.104997 -0.708013 -2.612258 -4.508573 0.000000 0.000000 0.000000 -3.914537 -9.167980 -6.153433 -5.686315 17.744986 -5.727860 -6.213944 -2.457845 -1.783328 0.000000 0.000000 0.000000 0.765743 -12.981394 5.059032 1.059177 32.117382 -4.782150 -0.368947 -13.474821 1.241816 0.000000 0.000000 0.000000 
-3154.907715 958.978821 1111.087036 -3.627825 6.845180 0.334655 0.658417 6.155832 3.001380 0.298886 -0.920996 -0.679682 0.402361 1.219150 0.459315 -0.188532 -4.374266 2.132097 0.000000 0.000000 0.000000 2.675495 -0.437567 -1.257196 -0.006955 0.389510 0.123608 0.116376 0.151645 1.086556 0.000000 0.000000 0.000000 1.256694 1.200259 0.760656 -0.460973 0.072383 -5.172556 -0.744379 -2.921385 -4.692292 0.000000 0.000000 0.000000 -4.163206 -9.671275 -6.361161 -5.756216 18.237312 -5.910878 -6.237120 -2.712848 -1.716609 0.000000 0.000000 0.000000 -0.280979 -13.062895 4.904192 0.283200 25.514726 -4.274814 -1.042528 -12.865517 0.915381 0.000000 0.000000 0.000000 
